PathFileType	4	(X/Y/Z)	C:/Users/opensim2020/Desktop/walking_exp_matlab/subject03_walking04_straight_02.trc																																																																																																																																																							
DataRate	CameraRate	NumFrames	NumMarkers	Units	OrigDataRate	OrigDataStartFrame	OrigNumFrames																																																																																																																																																			
100	100	8	51	mm	100	1734	259																																																																																																																																																			
Frame#	Time	LFHD			RFHD			LBHD			RBHD			C7			T10			CLAV			STRN			RBAK			LSHO			LUPA			LELB			LFRM			LWRA			LWRB			LFIN			RSHO			RUPA			RELB			RFRM			RWRA			RWRB			RFIN			LASI			RASI			LPSI			RPSI			LTHI			LKNE			LTIB			LANK			LHEE			LTOE			RTHI			RKNE			RTIB			RANK			RHEE			RTOE			*39			*40			*41			*42			*43			*44			*45			*46			*47			*48			*49			*50		
		X1	Y1	Z1	X2	Y2	Z2	X3	Y3	Z3	X4	Y4	Z4	X5	Y5	Z5	X6	Y6	Z6	X7	Y7	Z7	X8	Y8	Z8	X9	Y9	Z9	X10	Y10	Z10	X11	Y11	Z11	X12	Y12	Z12	X13	Y13	Z13	X14	Y14	Z14	X15	Y15	Z15	X16	Y16	Z16	X17	Y17	Z17	X18	Y18	Z18	X19	Y19	Z19	X20	Y20	Z20	X21	Y21	Z21	X22	Y22	Z22	X23	Y23	Z23	X24	Y24	Z24	X25	Y25	Z25	X26	Y26	Z26	X27	Y27	Z27	X28	Y28	Z28	X29	Y29	Z29	X30	Y30	Z30	X31	Y31	Z31	X32	Y32	Z32	X33	Y33	Z33	X34	Y34	Z34	X35	Y35	Z35	X36	Y36	Z36	X37	Y37	Z37	X38	Y38	Z38	X39	Y39	Z39	X40	Y40	Z40	X41	Y41	Z41	X42	Y42	Z42	X43	Y43	Z43	X44	Y44	Z44	X45	Y45	Z45	X46	Y46	Z46	X47	Y47	Z47	X48	Y48	Z48	X49	Y49	Z49	X50	Y50	Z50	X51	Y51	Z51
																																																																																																																																																										
195	1.94	508.19147	1613.01477	-1645.3136	476.34766	1617.94482	-1515.54907	377.84174	1587.70447	-1672.14087	351.16211	1591.85852	-1543.94812	317.69617	1422.99329	-1612.34583	285.241	1105.87256	-1609.26306	437.55087	1345.38867	-1602.58411	483.00809	1181.53503	-1602.71277	261.21472	1245.78796	-1511.76782	401.7952	1379.66699	-1761.38281	388.19128	1179.8916	-1829.02087	386.37738	1055.59021	-1835.9054	400.66162	925.89404	-1830.1228	399.28812	806.39954	-1795.75012	387.95105	813.46356	-1850.91345	378.08386	727.58948	-1836.07446	385.82977	1372.53455	-1447.12451	407.88736	1151.94214	-1373.60999	438.88062	1043.10742	-1363.1908	484.95581	914.60559	-1368.27856	535.2301	831.86096	-1411.16711	507.7449	816.44043	-1366.67297	546.11676	753.72162	-1383.08777	462.21732	948.02899	-1715.88708	444.01373	936.9726	-1478.13733	297.20709	970.61517	-1678.12866	287.99472	969.53949	-1528.72363	427.80249	647.25342	-1760.35669	459.37311	472.66095	-1715.22693	432.48245	279.42102	-1713.57129	435.13162	71.67684	-1671.36487	397.84714	37.09501	-1633.56091	590.17657	37.14111	-1654.46228	392.08118	636.19135	-1438.90918	414.80768	457.02026	-1461.93091	265.08353	338.57684	-1461.38916	95.28091	209.42091	-1508.43323	52.92757	232.01569	-1565.31067	119.7017	68.48277	-1526.82117	NaN	NaN	NaN	NaN	NaN	NaN	NaN	NaN	NaN	NaN	NaN	NaN	NaN	NaN	NaN	NaN	NaN	NaN	NaN	NaN	NaN	NaN	NaN	NaN	NaN	NaN	NaN	NaN	NaN	NaN	NaN	NaN	NaN	NaN	NaN	NaN
196	1.95	517.63843	1613.63501	-1645.3949	485.89746	1618.58655	-1515.61877	386.99646	1588.62537	-1672.23511	360.67413	1592.80981	-1543.94409	326.78537	1423.83508	-1612.43127	294.40527	1106.76611	-1610.24219	446.60104	1346.20264	-1602.65417	492.24521	1182.3822	-1602.93518	270.14856	1246.10437	-1512.70398	410.86444	1380.28162	-1761.49878	399.74103	1180.62451	-1829.78894	400.10703	1056.45068	-1837.41663	417.03622	927.06049	-1831.70508	418.461	807.75061	-1797.4425	406.69656	814.38226	-1852.45959	400.20993	728.40668	-1837.69153	394.83322	1372.7511	-1447.0144	416.21094	1151.69873	-1374.44177	446.29446	1042.46094	-1364.10498	490.61386	913.36761	-1369.19067	539.28235	829.62323	-1412.30505	512.19128	814.9184	-1367.46765	549.50732	751.5213	-1384.06836	471.63837	948.63324	-1716.76965	453.50912	937.87988	-1478.64575	306.4617	971.25531	-1678.81372	297.51727	969.71185	-1529.4762	435.99139	647.86609	-1760.73877	464.17154	472.70547	-1715.72046	435.15039	279.59146	-1713.69995	435.46484	71.53746	-1670.99719	397.90878	37.20622	-1633.48218	590.28961	37.05614	-1654.36108	407.13303	637.23535	-1439.80884	434.71912	458.96515	-1462.62695	284.88013	341.85547	-1462.52966	114.5966	213.46265	-1509.11401	71.22918	233.21252	-1566.0094	143.39561	72.34338	-1523.98816	NaN	NaN	NaN	NaN	NaN	NaN	NaN	NaN	NaN	NaN	NaN	NaN	NaN	NaN	NaN	NaN	NaN	NaN	NaN	NaN	NaN	NaN	NaN	NaN	NaN	NaN	NaN	NaN	NaN	NaN	NaN	NaN	NaN	NaN	NaN	NaN
197	1.96	526.95636	1614.17004	-1645.4447	495.37	1619.05176	-1515.59717	396.40955	1589.47803	-1672.06189	369.966	1593.66589	-1543.8147	335.80673	1424.54858	-1612.35632	303.81091	1107.07886	-1610.61304	455.54666	1346.99658	-1602.69214	501.38162	1183.22852	-1603.26563	278.84106	1246.38672	-1513.74121	419.84927	1380.95386	-1761.5863	411.26559	1181.44141	-1830.4729	413.93112	1057.38379	-1838.724	433.53589	928.4433	-1833.33215	437.68445	809.26312	-1799.02661	425.56128	815.50159	-1853.91589	422.91684	729.62958	-1839.25781	403.76273	1372.8075	-1446.77649	424.40295	1151.45618	-1375.27747	453.67664	1041.87622	-1365.20935	496.31891	912.13354	-1370.00061	544.45563	827.94739	-1412.62036	516.45056	813.43066	-1368.09692	552.9787	749.39911	-1384.65894	480.82495	949.44464	-1717.86304	463.81293	939.02283	-1479.38513	315.63196	971.86475	-1679.41052	307.06189	970.08881	-1530.18225	443.81088	648.08435	-1760.77539	469.03973	472.65347	-1715.84033	438.00226	279.78128	-1713.69263	436.51425	70.95284	-1670.08557	398.16287	37.32265	-1633.10645	590.39935	36.95	-1654.23584	422.28885	638.35138	-1440.31104	454.48645	461.17267	-1463.37268	304.81775	344.7858	-1463.64526	134.98088	215.67555	-1509.4917	90.26271	233.23402	-1566.28259	168.37883	75.44028	-1521.84583	NaN	NaN	NaN	NaN	NaN	NaN	NaN	NaN	NaN	NaN	NaN	NaN	NaN	NaN	NaN	NaN	NaN	NaN	NaN	NaN	NaN	NaN	NaN	NaN	NaN	NaN	NaN	NaN	NaN	NaN	NaN	NaN	NaN	NaN	NaN	NaN
198	1.97	536.18756	1614.58167	-1645.40076	504.79236	1619.41589	-1515.50281	405.38788	1590.24976	-1672.01135	379.37567	1594.25037	-1543.61865	344.67511	1425.14514	-1612.32202	312.88187	1107.66919	-1611.18896	464.46698	1347.6593	-1602.76233	510.40851	1184.02502	-1603.52161	287.88547	1246.31812	-1514.53882	428.62427	1381.60938	-1761.60828	422.77341	1182.29443	-1831.02673	427.74384	1058.48572	-1839.88708	449.91315	929.86816	-1834.53577	457.04529	811.17505	-1800.55115	444.57874	816.90063	-1855.2915	446.11322	731.30444	-1840.8905	412.38428	1372.90918	-1446.67517	432.3316	1151.15198	-1376.08252	460.75574	1041.29736	-1366.11169	501.66296	910.96869	-1370.81189	548.17206	825.8316	-1413.46497	520.55029	811.9928	-1368.61047	556.27899	747.50916	-1384.97449	489.76797	950.23608	-1719.03918	472.7037	939.82062	-1480.67053	324.78232	972.4563	-1679.77869	316.586	970.5238	-1530.61267	451.91141	648.26929	-1760.8606	474.38321	472.58102	-1715.76111	440.91281	279.90259	-1713.52417	436.68802	71.17088	-1669.67969	398.064	37.62723	-1633.14099	590.55389	36.8516	-1654.05042	437.72681	639.44971	-1441.4165	474.00833	463.52161	-1464.24878	325.07504	347.02133	-1464.87061	156.05702	216.56285	-1509.73657	110.09444	232.09216	-1566.20471	193.97505	77.42389	-1520.32141	NaN	NaN	NaN	NaN	NaN	NaN	NaN	NaN	NaN	NaN	NaN	NaN	NaN	NaN	NaN	NaN	NaN	NaN	NaN	NaN	NaN	NaN	NaN	NaN	NaN	NaN	NaN	NaN	NaN	NaN	NaN	NaN	NaN	NaN	NaN	NaN
199	1.98	545.37976	1614.95715	-1645.29932	514.12213	1619.71021	-1515.37256	414.44443	1590.93298	-1671.77832	388.5448	1594.89978	-1543.36304	353.48709	1425.66772	-1612.31653	321.94901	1108.13257	-1611.52869	473.17184	1348.24036	-1602.7616	519.27661	1184.6698	-1603.88354	296.49078	1246.50134	-1515.30981	437.32733	1382.32385	-1761.61804	434.20816	1183.30981	-1831.63049	441.62451	1059.7616	-1840.99329	466.19125	931.49377	-1835.70605	476.43622	813.38153	-1801.97864	463.68491	818.59497	-1856.52173	469.69687	733.6037	-1842.53174	420.77618	1373.04541	-1446.49792	439.94382	1150.78369	-1376.88171	467.72144	1040.77991	-1367.16296	506.93271	909.86145	-1371.47217	552.42273	823.96069	-1413.80334	524.44641	810.69421	-1368.95825	559.45496	745.87225	-1384.95618	498.50589	950.85834	-1720.2998	483.07443	941.26141	-1481.56628	333.78091	973.15674	-1680.09705	326.06244	971.07526	-1531.02844	459.59186	648.28632	-1760.58179	479.80215	472.47186	-1715.47205	443.82095	280.01776	-1713.37671	436.97372	71.35576	-1669.35449	398.15768	37.81348	-1632.93347	590.66559	36.8218	-1653.87268	452.8089	641.09686	-1442.18079	493.21884	465.91068	-1465.29199	345.461	348.51788	-1465.7865	177.97386	215.89171	-1509.77649	130.69835	229.84392	-1566.14758	219.97205	78.34964	-1519.35303	NaN	NaN	NaN	NaN	NaN	NaN	NaN	NaN	NaN	NaN	NaN	NaN	NaN	NaN	NaN	NaN	NaN	NaN	NaN	NaN	NaN	NaN	NaN	NaN	NaN	NaN	NaN	NaN	NaN	NaN	NaN	NaN	NaN	NaN	NaN	NaN
200	1.99	554.42596	1615.25879	-1645.13721	523.40082	1619.85693	-1515.15173	423.46542	1591.51587	-1671.4801	397.71259	1595.41907	-1543.0885	362.04642	1426.12769	-1612.30725	330.92346	1108.6134	-1611.96619	481.81271	1348.72009	-1602.74756	528.0946	1185.28369	-1604.32239	305.0163	1246.65625	-1515.90906	445.9585	1383.11841	-1761.63782	445.52399	1184.43274	-1832.18762	455.54184	1061.15344	-1841.93359	482.77054	933.52985	-1836.75183	498.12302	817.42139	-1804.89197	482.94742	820.60931	-1857.60486	493.47977	736.51837	-1844.13306	429.19742	1373.13391	-1446.39819	447.26465	1150.46399	-1377.62793	474.51962	1040.2865	-1368.11755	512.02496	908.87366	-1372.07861	556.64539	822.27594	-1413.95239	528.22742	809.51068	-1369.29309	562.83099	744.3371	-1384.64294	507.15109	951.44263	-1721.59106	492.81924	942.42462	-1482.86243	342.62216	973.31354	-1680.57629	335.44464	971.68231	-1531.33789	467.13901	648.24335	-1760.30652	485.14395	472.24423	-1715.14722	446.58643	280.12048	-1713.30505	436.31613	72.30517	-1669.82837	398.34653	37.84481	-1632.6665	590.75195	36.72801	-1653.74561	468.12338	642.45801	-1442.77454	512.10345	468.37225	-1466.39282	366.15933	349.20251	-1466.67078	200.37257	214.10258	-1509.86609	151.9782	226.49722	-1566.04529	246.64262	78.35265	-1518.86865	NaN	NaN	NaN	NaN	NaN	NaN	NaN	NaN	NaN	NaN	NaN	NaN	NaN	NaN	NaN	NaN	NaN	NaN	NaN	NaN	NaN	NaN	NaN	NaN	NaN	NaN	NaN	NaN	NaN	NaN	NaN	NaN	NaN	NaN	NaN	NaN
201	2	563.48798	1615.42249	-1644.96118	532.65582	1619.9126	-1514.89063	432.36365	1592.02478	-1671.11865	406.888	1595.76257	-1542.66455	370.76004	1426.40723	-1612.21387	339.6828	1108.92395	-1612.30835	490.55923	1349.1991	-1602.80908	536.76807	1185.76147	-1604.89807	313.5618	1246.84521	-1516.34534	454.49384	1383.89404	-1761.59949	456.76495	1185.58911	-1832.66797	469.39407	1062.72168	-1842.83362	499.44089	935.77533	-1837.6803	516.70789	819.43091	-1805.1333	502.31229	822.93677	-1858.52197	517.35242	740.02209	-1845.65369	437.43341	1373.19434	-1446.32373	454.37082	1150.15564	-1378.25208	481.09195	1039.85669	-1368.89209	517.0495	907.95142	-1372.59497	560.81903	820.81287	-1413.901	531.88214	808.38092	-1369.40515	565.9234	743.03687	-1384.14185	515.70538	951.83026	-1722.84375	502.69711	943.72882	-1484.30103	351.53262	973.41638	-1680.89941	344.90585	972.10095	-1531.58972	474.49057	648.10071	-1760.11011	490.21658	471.9808	-1715.01099	449.25906	280.21399	-1713.27271	436.41501	72.7989	-1669.86633	398.45215	38.03751	-1632.57043	590.8551	36.72779	-1653.59973	483.34052	643.80627	-1443.33484	530.64008	470.80884	-1467.61499	387.11304	348.99954	-1467.60974	223.15665	211.27849	-1509.82166	173.79123	221.93835	-1565.89404	274.42181	77.72025	-1518.99084	NaN	NaN	NaN	NaN	NaN	NaN	NaN	NaN	NaN	NaN	NaN	NaN	NaN	NaN	NaN	NaN	NaN	NaN	NaN	NaN	NaN	NaN	NaN	NaN	NaN	NaN	NaN	NaN	NaN	NaN	NaN	NaN	NaN	NaN	NaN	NaN
202	2.01	572.43591	1615.47217	-1644.66431	541.85071	1619.83398	-1514.58313	441.25793	1592.48596	-1670.7229	416.01962	1595.89758	-1542.15674	379.26743	1426.7854	-1612.12976	348.43765	1109.18542	-1612.63367	499.09665	1349.44849	-1602.85291	545.38153	1186.10657	-1605.47107	322.07303	1247.04797	-1516.63513	463.04074	1384.63074	-1761.52625	467.87787	1186.89783	-1833.26428	483.2114	1064.42419	-1843.72485	516.07532	938.14539	-1838.4386	535.44879	821.90796	-1805.4519	521.82532	825.57764	-1859.34473	540.99371	744.04089	-1847.06543	445.57593	1373.26416	-1446.29919	461.22253	1149.84412	-1378.74646	487.4313	1039.42932	-1369.50562	521.90106	907.05029	-1372.98828	564.9389	819.31152	-1413.81226	535.53864	807.44672	-1369.46045	569.13312	741.78998	-1383.50635	524.10022	952.08813	-1724.03967	512.49542	944.8526	-1485.64526	360.21844	973.42438	-1681.13599	354.11703	972.58972	-1531.88184	481.53488	647.9267	-1760.09668	495.0769	471.7009	-1715.10571	451.86053	280.26514	-1713.30383	436.68854	72.93112	-1669.66833	398.10645	38.44687	-1632.87512	590.90381	36.65722	-1653.49866	498.41888	645.27332	-1444.40833	548.88885	473.17157	-1468.91565	408.20273	348.1492	-1468.51611	246.61693	207.44162	-1510.1886	195.9949	216.22006	-1565.69836	303.34161	76.60011	-1519.64697	NaN	NaN	NaN	NaN	NaN	NaN	NaN	NaN	NaN	NaN	NaN	NaN	NaN	NaN	NaN	NaN	NaN	NaN	NaN	NaN	NaN	NaN	NaN	NaN	NaN	NaN	NaN	NaN	NaN	NaN	NaN	NaN	NaN	NaN	NaN	NaN
